<?xml version="1.0" encoding="UTF-8"?>
<svg version="1.1" xmlns="http://www.w3.org/2000/svg" width="8000" height="8000">
<path d="M0 0 C42.40486651 -0.00549791 84.80973305 -0.01076988 127.21459961 -0.01586914 C128.04434233 -0.01596894 128.87408504 -0.01606874 129.72897148 -0.01617156 C218.60882935 -0.02685548 307.48868723 -0.03607947 396.36854553 -0.04234314 C398.34203864 -0.04248259 400.31553175 -0.04262204 402.28902486 -0.04276149 C443.71004121 -0.04568396 485.13105757 -0.0484007 526.55207395 -0.05087968 C547.35816148 -0.05212511 568.16424901 -0.05341008 588.97033654 -0.05473244 C592.10892348 -0.05493169 595.24751042 -0.05512981 598.38609737 -0.05532788 C646.7355275 -0.0583891 695.08495738 -0.06230024 743.43438721 -0.06866455 C744.4745265 -0.06880145 745.51466579 -0.06893835 746.58632445 -0.0690794 C763.35723717 -0.07129186 780.12814987 -0.07357543 796.89906258 -0.07586844 C845.18431589 -0.08246917 893.46956901 -0.08854708 941.75482273 -0.09113979 C942.74705324 -0.09119333 943.73928374 -0.09124686 944.76158184 -0.09130202 C966.53958513 -0.09246758 988.31758842 -0.09336253 1010.09559173 -0.09400098 C1018.85734825 -0.09426262 1027.61910477 -0.09456324 1036.38086128 -0.09487724 C1037.81929604 -0.09492738 1037.81929604 -0.09492738 1039.28679008 -0.09497854 C1070.22218294 -0.09607629 1101.15757437 -0.1003518 1132.09296665 -0.10628221 C1163.23658416 -0.11223806 1194.38020029 -0.11510171 1225.52381839 -0.11362399 C1229.82070948 -0.11342089 1234.11760056 -0.11325351 1238.41449165 -0.11310768 C1239.25685642 -0.1130778 1240.09922119 -0.11304792 1240.96711216 -0.11301713 C1254.34309452 -0.11263544 1267.71907395 -0.11563001 1281.09505551 -0.12000986 C1294.22539318 -0.12424068 1307.35572702 -0.1249506 1320.48606505 -0.12183181 C1328.19858579 -0.12010827 1335.91109444 -0.12116907 1343.62361378 -0.126217 C1349.32729722 -0.12964973 1355.03096942 -0.1279514 1360.7346522 -0.12413998 C1363.04414845 -0.12341862 1365.35364595 -0.1244173 1367.6631406 -0.12723524 C1370.77169232 -0.13079127 1373.8801794 -0.12832091 1376.98872894 -0.1241985 C1377.89994511 -0.12670737 1378.81116128 -0.12921625 1379.74999006 -0.13180115 C1385.88584499 -0.11415501 1385.88584499 -0.11415501 1387 1 C1387.5205077 3.98494224 1387.98363914 6.96181388 1388.41433716 9.96018982 C1388.55504511 10.91638293 1388.69575306 11.87257604 1388.84072489 12.85774469 C1389.31723463 16.10307927 1389.78771757 19.34926013 1390.25830078 22.59545898 C1390.59963558 24.92872326 1390.94134007 27.26193349 1391.28338528 29.59509373 C1392.02875676 34.68524883 1392.77152511 39.77577694 1393.51205635 44.86663818 C1394.60959668 52.41163012 1395.71195678 59.95591212 1396.81539572 67.50004338 C1398.66837613 80.16955769 1400.51760344 92.83961708 1402.36477661 105.50997925 C1405.03100626 123.79817641 1407.7026874 142.0855747 1410.37559862 160.37279637 C1411.32633168 166.87751065 1412.2769546 173.38224102 1413.2275726 179.88697211 C1413.4667911 181.52385628 1413.70601184 183.16074013 1413.9452348 184.79762366 C1415.64219823 196.40919144 1417.33846849 208.02086031 1419.03419238 219.63260918 C1425.34250369 262.82979949 1431.66161647 306.02538884 1437.99609375 349.21875 C1438.19709119 350.58933194 1438.39808862 351.95991389 1438.59908605 353.33049583 C1440.89095936 368.95839402 1443.18338649 384.58621095 1445.4760068 400.21399957 C1449.09824991 424.90538017 1452.71867759 449.59702704 1456.33922136 474.28865686 C1457.04698636 479.11551072 1457.75477289 483.94236142 1458.46256828 488.76921082 C1464.53990638 530.21407613 1470.6140043 571.65941552 1476.68577281 613.10509714 C1476.99995522 615.24969433 1477.31413908 617.3942913 1477.62832332 619.53888822 C1479.82934303 634.56288784 1482.03030642 649.58689571 1484.23124566 664.61090712 C1499.49870472 768.83140353 1499.49870472 768.83140353 1516.55859375 885.16015625 C1516.65626639 885.82581782 1516.75393902 886.49147939 1516.85457143 887.17731252 C1519.70648548 906.61370881 1522.55871488 926.05005882 1525.41100359 945.48640013 C1528.75596504 968.27996777 1532.100829 991.07354972 1535.4453125 1013.8671875 C1535.59186515 1014.86598573 1535.59186515 1014.86598573 1535.74137846 1015.88496169 C1545.35672163 1081.41651618 1554.96024115 1146.94980223 1564.56125289 1212.48345774 C1564.87495768 1214.62471115 1565.18866381 1216.76596436 1565.50237036 1218.9072175 C1570.42795553 1252.52758091 1575.35320303 1286.14799378 1580.27830227 1319.76842837 C1588.2260341 1374.02238821 1596.17469592 1428.27621179 1604.12370318 1482.52998477 C1604.85403699 1487.5146816 1605.58436462 1492.49937934 1606.31468964 1497.48407745 C1615.79941548 1562.22026801 1625.28576577 1626.95621996 1634.77734375 1691.69140625 C1634.87776125 1692.37628187 1634.97817875 1693.06115748 1635.0816392 1693.7667869 C1638.6255284 1717.93708007 1642.1696188 1742.10734373 1645.71376419 1766.27759933 C1648.54883592 1785.61213835 1651.38386197 1804.94668405 1654.21875 1824.28125 C1654.31913081 1824.96586883 1654.41951163 1825.65048766 1654.52293429 1826.35585251 C1661.00728883 1870.58063107 1667.48909111 1914.80578321 1673.96875 1959.03125 C1674.07203346 1959.73618733 1674.17531692 1960.44112466 1674.28173018 1961.16742373 C1677.62589028 1983.99223748 1680.96985776 2006.81707945 1684.31380177 2029.64192486 C1687.55286496 2051.7508792 1690.79197475 2073.85982672 1694.03125 2095.96875 C1694.13453849 2096.67372258 1694.23782699 2097.37869515 1694.34424543 2098.10503054 C1700.82090306 2142.3099474 1707.29990528 2186.51452012 1713.78125 2230.71875 C1713.93183884 2231.74580154 1713.93183884 2231.74580154 1714.08546987 2232.7936016 C1717.62784892 2256.95344588 1721.17045325 2281.11325712 1724.71311569 2305.27305984 C1727.54711214 2324.59999588 1730.38105149 2343.92694028 1733.21484375 2363.25390625 C1733.31519585 2363.93832406 1733.41554794 2364.62274186 1733.51894102 2365.32789961 C1739.91193498 2408.92923669 1746.30204074 2452.53099638 1752.68977386 2496.1331045 C1753.00386654 2498.27707269 1753.31796051 2500.42104069 1753.63205481 2502.56500864 C1755.83220961 2517.58299709 1758.03231557 2532.60099269 1760.23240055 2547.61899136 C1761.07095085 2553.34301853 1761.90950253 2559.06704551 1762.74805498 2564.79107237 C1762.95769021 2566.22205971 1763.16732531 2567.65304707 1763.37696028 2569.08403444 C1773.09841982 2635.44358566 1782.82195921 2701.80282965 1792.55859375 2768.16015625 C1792.65626639 2768.82581782 1792.75393902 2769.49147939 1792.85457143 2770.17731252 C1795.70648548 2789.61370881 1798.55871488 2809.05005882 1801.41100359 2828.48640013 C1804.75596504 2851.27996777 1808.100829 2874.07354972 1811.4453125 2896.8671875 C1811.59186515 2897.86598573 1811.59186515 2897.86598573 1811.74137846 2898.88496169 C1821.3568379 2964.41730859 1830.96050542 3029.95138243 1840.56160247 3095.4858349 C1840.87485653 3097.62402071 1841.1881115 3099.76220639 1841.50136662 3101.90039206 C1845.47491862 3129.02269471 1849.44828671 3156.1450243 1853.42147827 3183.26737976 C1861.26482391 3236.80869447 1869.10934645 3290.34983671 1876.9542706 3343.89092016 C1879.77258574 3363.12573391 1882.59076896 3382.36056699 1885.40883247 3401.5954176 C1887.35323122 3414.86700491 1889.29769205 3428.13858311 1891.2421875 3441.41015625 C1891.34279604 3442.09683113 1891.44340458 3442.783506 1891.54706186 3443.49098921 C1897.43076511 3483.64847573 1903.3168022 3523.80561954 1909.20503533 3563.9624421 C1910.63772259 3573.73317025 1912.07028987 3583.50391598 1913.5027771 3593.27467346 C1913.70289078 3594.63960968 1913.90300451 3596.00454589 1914.1031183 3597.3694821 C1914.89292841 3602.75662791 1915.68273626 3608.14377406 1916.47252822 3613.53092253 C1918.75304245 3629.08621956 1921.03400791 3644.64145029 1923.31574285 3660.19656831 C1924.71508975 3669.73646688 1926.11394303 3679.27643774 1927.5123955 3688.81646746 C1928.31467307 3694.28934594 1929.1171973 3699.76218797 1929.92035294 3705.23493767 C1930.65177575 3710.21890223 1931.38255652 3715.20296048 1932.1128037 3720.18709743 C1932.37758889 3721.99349824 1932.64262154 3723.79986279 1932.90791583 3725.60618889 C1933.26539699 3728.04042367 1933.62201259 3730.47478364 1933.97839355 3732.90917969 C1934.0833946 3733.6227044 1934.18839564 3734.33622911 1934.29657853 3735.07137579 C1935 3739.88585621 1935 3739.88585621 1935 3741 C1611.27 3741 1287.54 3741 954 3741 C951.70282133 3720.32539194 951.70282133 3720.32539194 951.1093998 3712.01182747 C951.03726723 3711.04057968 950.96513467 3710.06933189 950.89081627 3709.06865235 C950.6537442 3705.8656646 950.42141478 3702.66235218 950.18911743 3699.45901489 C950.01603562 3697.10707468 949.84265615 3694.75515636 949.66900867 3692.40325785 C949.24332548 3686.62740588 948.82075491 3680.85133218 948.39950624 3675.07515524 C947.88983412 3668.08910178 947.37614281 3661.1033452 946.86233907 3654.1175946 C945.90029878 3641.03611426 944.94138647 3627.95440636 943.98414803 3614.87257385 C943.01207158 3601.58828041 942.03841212 3588.3041043 941.0628643 3575.02006531 C940.9701597 3573.75770179 940.9701597 3573.75770179 940.87558227 3572.46983599 C940.5601994 3568.175391 940.24478543 3563.88094829 939.92935628 3559.58650669 C939.28158702 3550.76728856 938.63401749 3541.94805575 937.98650837 3533.12881851 C937.88856848 3531.79485902 937.88856848 3531.79485902 937.78865 3530.43395085 C936.35149042 3510.85893092 934.91621504 3491.28377292 933.48107665 3471.70860472 C929.86535677 3422.39054008 926.24413642 3373.07288035 922.62084961 3323.75537109 C922.54705555 3322.75093425 922.4732615 3321.7464974 922.39723126 3320.71162308 C920.57851052 3295.9564065 918.7595745 3271.20120574 916.94049214 3246.44601573 C915.85135996 3231.62441406 914.76235648 3216.80280294 913.67345167 3201.98118456 C905.7988124 3094.79590012 897.91355161 2987.61140511 870.03910625 2610.0741483 C869.64141621 2604.69286565 869.24373581 2599.31158229 868.84605865 2593.93029869 C861.12820679 2489.49400544 853.40654525 2385.0579939 744.9375 933.875 C744.87385929 933.04034033 744.81021857 932.20568066 744.74464935 931.34572828 C743.02978353 908.85544308 741.31292549 886.36531062 739.5933466 863.87538528 C739.38513111 861.15215043 739.17696445 858.42891185 738.96884823 855.7056694 C737.88514297 841.52553682 736.79947846 827.34556297 735.70526898 813.16623664 C735.23980465 807.13035352 734.77895156 801.09414346 734.32221621 795.0575937 C734.04653095 791.4231472 733.76754497 787.7889597 733.4876529 784.15483499 C733.36098138 782.50060824 733.23575347 780.84627021 733.11208713 779.19181609 C732.94637629 776.97694106 732.77562381 774.76251305 732.60353088 772.54812622 C732.51030831 771.32139254 732.41708574 770.09465885 732.32103825 768.83075142 C732.17034776 766.05438445 732.17034776 766.05438445 731 764 C718.00217556 865.41573158 706.67722709 966.98976657 571 2669 C570.95277967 2669.70227423 570.90555933 2670.40454846 570.85690808 2671.12810373 C566.17332732 2740.78574352 561.53505907 2810.44639246 512.2421875 3592.5625 C512.13323863 3594.38591325 512.13323863 3594.38591325 512.02208877 3596.24616313 C510.54521753 3620.96959539 509.07585532 3645.69346421 507.61797047 3670.41802335 C507.27099569 3676.29932438 506.92312742 3682.18057267 506.57527041 3688.06182158 C506.25849806 3693.42049549 505.94365294 3698.77927773 505.63048822 3704.13816363 C505.44197518 3707.35753824 505.25182417 3710.57681462 505.06123817 3713.79606712 C504.97519496 3715.25548203 504.88985061 3716.71493836 504.80529988 3718.1744405 C504.69031813 3720.15803496 504.57256327 3722.14146807 504.45469666 3724.12489319 C504.39050506 3725.21996217 504.32631346 3726.31503115 504.26017666 3727.44328403 C503.92907467 3731.96957681 503.45158637 3736.48413635 503 3741 C175.64 3741 -151.72 3741 -489 3741 C-487.85143897 3724.92014564 -487.85143897 3724.92014564 -486.78703308 3716.98510742 C-486.6677685 3716.07030776 -486.54850392 3715.1555081 -486.42562526 3714.21298724 C-486.02876581 3711.17662392 -485.62608042 3708.14106363 -485.22338867 3705.10546875 C-484.93165696 3702.88277634 -484.64029402 3700.6600355 -484.34926414 3698.43725109 C-483.71490211 3693.59849746 -483.07790673 3688.76010019 -482.43890572 3683.92195702 C-481.47921747 3676.65561386 -480.52425949 3669.38865498 -479.57045688 3662.12153768 C-477.9375367 3649.68093935 -476.30101855 3637.24081684 -474.66265869 3624.80093384 C-472.13487576 3605.60707607 -469.61344707 3586.41238593 -467.09326172 3567.2175293 C-466.87398895 3565.54749637 -466.6547157 3563.87746352 -466.43544197 3562.20743072 C-465.54172673 3555.40066104 -464.64803222 3548.59388864 -463.75441408 3541.78710622 C-462.5989859 3532.9861722 -461.44337388 3524.18526239 -460.28736115 3515.38440514 C-452.69985743 3457.61977357 -445.13644734 3399.85202009 -437.58984375 3342.08203125 C-437.4586411 3341.0776749 -437.32743845 3340.07331855 -437.19225997 3339.03852716 C-433.96149827 3314.30694247 -430.73157378 3289.57524847 -427.50199895 3264.84350877 C-422.50871819 3226.60556045 -417.5136782 3188.36784188 -412.51867569 3150.13011843 C-411.68053986 3143.714016 -410.84241973 3137.29791151 -410.00431267 3130.88180532 C-401.8476574 3068.43878663 -393.68641398 3005.99636938 -385.51953125 2943.5546875 C-385.33037088 2942.10841897 -385.33037088 2942.10841897 -385.13738909 2940.6329329 C-381.48734546 2912.72578198 -377.8368736 2884.81868707 -374.18628263 2856.91160774 C-372.93762136 2847.36616306 -371.6889789 2837.82071592 -370.44033813 2828.27526855 C-370.3169076 2827.33168279 -370.19347707 2826.38809703 -370.06630621 2825.41591775 C-367.34629065 2804.62228083 -364.62632503 2783.82863738 -361.906418 2763.03498626 C-361.53938771 2760.22904872 -361.17235568 2757.42311142 -360.80532336 2754.61717415 C-353.54159108 2699.08633413 -346.28083428 2643.55510587 -339.0234375 2588.0234375 C-338.91201897 2587.1708947 -338.80060044 2586.31835189 -338.68580559 2585.43997446 C-335.56023098 2561.52395222 -332.43484305 2537.60790559 -329.30950156 2513.69185289 C-325.44217824 2484.09793221 -321.57478179 2454.50402109 -317.70703125 2424.91015625 C-317.59764755 2424.07321215 -317.48826385 2423.23626805 -317.3755655 2422.37396201 C-310.19535212 2367.43503899 -303.01124586 2312.49662582 -295.82421875 2257.55859375 C-295.70781139 2256.66876824 -295.59140402 2255.77894273 -295.47146916 2254.86215281 C-291.69629119 2226.00448649 -287.92083451 2197.14685662 -284.14534581 2168.28923094 C-280.4887009 2140.33997219 -276.83212077 2112.39070496 -273.17578125 2084.44140625 C-273.05935249 2083.55141835 -272.94292372 2082.66143045 -272.82296681 2081.74447322 C-265.64296508 2026.86003262 -258.4661575 1971.97517519 -251.29296875 1917.08984375 C-251.183516 1916.25237195 -251.07406325 1915.41490015 -250.96129376 1914.55205041 C-247.53648088 1888.34722837 -244.11196125 1862.142368 -240.6875 1835.9375 C-237.12901019 1808.70701767 -233.57047313 1781.47654151 -230.01171875 1754.24609375 C-229.90055125 1753.39547385 -229.78938375 1752.54485395 -229.67484754 1751.66845769 C-222.1679154 1694.22777545 -214.65741715 1636.78756007 -207.14453125 1579.34765625 C-207.02006378 1578.39603662 -206.89559632 1577.444417 -206.76735711 1576.46396041 C-202.71806163 1545.50498151 -198.66853447 1514.54603292 -194.61897933 1483.58708799 C-190.69770568 1453.60885344 -186.77648815 1423.63061155 -182.85546875 1393.65234375 C-182.66874678 1392.22475758 -182.66874678 1392.22475758 -182.47825265 1390.76833129 C-174.97873584 1333.43056328 -167.48185459 1276.09245132 -159.98828125 1218.75390625 C-159.87712445 1217.90337006 -159.76596765 1217.05283388 -159.65144247 1216.17652386 C-156.09449416 1188.95987388 -152.53778154 1161.7431931 -148.98109579 1134.52650881 C-145.55655513 1108.32103868 -142.13192937 1082.11557967 -138.70703125 1055.91015625 C-138.54292105 1054.65447443 -138.54292105 1054.65447443 -138.37549549 1053.3734253 C-131.19530735 998.43468094 -124.01121831 943.49644746 -116.82421875 888.55859375 C-116.70777412 887.66848255 -116.5913295 886.77837135 -116.47135624 885.86128709 C-112.34295343 854.30351435 -108.21422789 822.74578383 -104.0854454 791.18806076 C-100.79382321 766.02903531 -97.50227898 740.86999967 -94.2109375 715.7109375 C-94.0947903 714.82310822 -93.97864309 713.93527895 -93.85897627 713.02054575 C-84.51420207 641.5889456 -75.17694759 570.15636378 -65.84238553 498.72342849 C-62.61660175 474.03805228 -59.39032483 449.35274058 -56.16356173 424.66749236 C-55.61506788 420.47141678 -55.06658168 416.2753402 -54.51809502 412.07926369 C-54.29887922 410.40220352 -54.07966339 408.72514335 -53.86044753 407.04808319 C-53.75198062 406.2182822 -53.64351371 405.38848122 -53.53175993 404.53353475 C-53.36910075 403.28914834 -53.36910075 403.28914834 -53.20315552 402.0196228 C-53.04052955 400.77549042 -53.04052955 400.77549042 -52.87461822 399.50622405 C-52.54628632 396.99439769 -52.21795412 394.48257138 -51.88962173 391.97074509 C-51.78133667 391.14233658 -51.67305161 390.31392807 -51.56148518 389.46041628 C-50.90678161 384.45177526 -50.2520682 379.44313552 -49.59734873 374.43449657 C-44.27441323 333.71369655 -38.95374431 292.9926016 -33.63677526 252.27102208 C-31.05863129 232.52558025 -28.48016006 212.78018136 -25.8999939 193.03500366 C-25.7867466 192.16835795 -25.6734993 191.30171223 -25.55682026 190.40880452 C-24.42685932 181.76167967 -23.29679532 173.11456829 -22.166597 164.46747445 C-21.61134733 160.2192657 -21.05612309 155.97105362 -20.50091553 151.72283936 C-20.39181874 150.88807993 -20.28272196 150.0533205 -20.17031921 149.19326533 C-18.43195997 135.89164561 -16.69566955 122.58975665 -14.96022648 109.28775617 C-13.24311 96.1265244 -11.52388839 82.96556905 -9.80243921 69.80490327 C-8.78345627 62.01413988 -7.76616334 54.22316005 -6.75124869 46.43186561 C-5.99580836 40.63390889 -5.23728751 34.83635803 -4.47752547 29.03896594 C-4.16989093 26.68773123 -3.86328221 24.33636205 -3.5577662 21.98485112 C-3.14507841 18.80957318 -2.72877009 15.6347911 -2.31149292 12.46011353 C-2.19199681 11.53381952 -2.0725007 10.60752552 -1.9493835 9.653162 C-1.83805119 8.81197823 -1.72671888 7.97079445 -1.61201286 7.10412025 C-1.51722896 6.37834805 -1.42244507 5.65257585 -1.32478893 4.90481055 C-1 3 -1 3 0 0 Z " fill="#FFFFFF" transform="translate(3998,2129)"/>
<path d="M0 0 C527.67 0 1055.34 0 1599 0 C1599 247.5 1599 495 1599 750 C1388.13 750 1177.26 750 960 750 C960 977.37 960 1204.74 960 1439 C1145.13 1439 1330.26 1439 1521 1439 C1521 1686.83 1521 1934.66 1521 2190 C1335.87 2190 1150.74 2190 960 2190 C960 2454.66 960 2719.32 960 2992 C1171.2 2992 1382.4 2992 1600 2992 C1600 3239.17 1600 3486.34 1600 3741 C1072 3741 544 3741 0 3741 C0 2506.47 0 1271.94 0 0 Z " fill="#FFFFFF" transform="translate(272,2129)"/>
<path d="M0 0 C535.92 0 1071.84 0 1624 0 C1624 247.5 1624 495 1624 750 C1404.55 750 1185.1 750 959 750 C959 977.37 959 1204.74 959 1439 C1152.38 1439 1345.76 1439 1545 1439 C1545 1686.83 1545 1934.66 1545 2190 C1351.62 2190 1158.24 2190 959 2190 C959 2701.83 959 3213.66 959 3741 C642.53 3741 326.06 3741 0 3741 C0 2506.47 0 1271.94 0 0 Z " fill="#FFFFFF" transform="translate(6104,2129)"/>
<path d="M0 0 C316.8 0 633.6 0 960 0 C960.0201782 312.71364945 960.0201782 312.71364945 960.02508167 398.62685438 C960.02517548 400.26892831 960.02526931 401.91100224 960.02536313 403.55307617 C960.02541016 404.37647636 960.0254572 405.19987655 960.02550566 406.04822826 C960.0256523 408.61380233 960.02579923 411.17937639 960.02594624 413.74495045 C960.0312299 505.96896192 960.03592536 598.19297341 960.042239 764.40844266 C960.04234323 767.27801834 960.04244766 770.14759402 960.04255217 773.0171697 C960.04551404 854.3556808 960.04828082 935.6941919 960.05078693 1017.03270302 C960.05087972 1020.04428582 960.05097252 1023.05586862 960.05106533 1026.06745142 C960.05111131 1027.55946073 960.05111131 1027.55946073 960.05115821 1029.08161165 C960.0523111 1066.47770428 960.05350848 1103.87379691 960.05473244 1141.26988954 C960.05486537 1145.33265937 960.05499779 1149.39542919 960.05512976 1153.45819902 C960.05823944 1249.18567444 960.06214045 1344.91314974 960.06866455 1440.640625 C960.0687672 1442.14807209 960.0687672 1442.14807209 960.06887193 1443.68597266 C960.07114848 1477.0985096 960.07350307 1510.51104653 960.07586844 1543.92358345 C960.07800558 1574.11559514 960.08011466 1604.30760683 960.08213139 1634.49961853 C960.08219767 1635.4917325 960.08226395 1636.48384646 960.08233224 1637.50602449 C960.086486 1699.79031696 960.0894201 1762.0746094 960.09113979 1824.35890198 C960.09116658 1825.32318068 960.09119336 1826.28745939 960.09122096 1827.28095867 C960.09239719 1869.66282491 960.09332112 1912.04469116 960.0939579 1954.42655742 C960.09421539 1971.48685124 960.09451012 1988.54714506 960.09482527 2005.60743887 C960.09487721 2008.43576876 960.09492794 2011.26409864 960.09497854 2014.09242852 C960.09575814 2057.18928816 960.09735144 2100.28614758 960.10139394 2143.38300705 C960.10152399 2144.76966363 960.10152399 2144.76966363 960.10165666 2146.18433348 C960.10305586 2161.04846473 960.104525 2175.91259597 960.10600626 2190.77672722 C960.11022891 2233.15048887 960.1139497 2275.52425027 960.11413276 2317.89801216 C960.11413674 2318.76420982 960.11414071 2319.63040749 960.11414481 2320.52285356 C960.11422174 2339.45586696 960.11402452 2358.38888035 960.1135619 2377.32189374 C960.11338155 2384.8822594 960.11323848 2392.44262506 960.11310768 2400.00299072 C960.11308483 2401.23981536 960.11308483 2401.23981536 960.11306151 2402.50162635 C960.11262998 2426.75534439 960.11469188 2451.00906102 960.11880933 2475.2627787 C960.12492479 2511.51820396 960.12745977 2547.77362741 960.12025452 2584.02905273 C960.12011909 2584.71672428 960.11998367 2585.40439584 960.11984414 2586.11290592 C960.10227752 2673.41173932 959.8968411 2760.70531919 959 2848 C958.98933888 2849.04616489 958.97867775 2850.09232977 958.96769356 2851.17019662 C958.73129869 2874.3515822 958.46595977 2897.53212099 958.12422562 2920.71221161 C958.05903228 2925.15660961 957.99611735 2929.60103881 957.93331909 2934.04547119 C956.70046758 3021.07451079 955.4101144 3108.18369012 916 3378 C915.63165039 3379.04124023 915.26330078 3380.08248047 914.88378906 3381.15527344 C903.31143436 3413.59173692 887.82603558 3444.58419369 870 3474 C869.38189453 3475.0219043 868.76378906 3476.04380859 868.12695312 3477.09667969 C860.39160884 3489.82527252 852.32385351 3502.19150587 843.40332031 3514.12207031 C842.14142951 3515.81073838 840.89399815 3517.51018857 839.6484375 3519.2109375 C831.15760108 3530.72759927 822.16539178 3541.90007385 812.4140625 3552.375 C810.55583667 3554.39559508 808.76949463 3556.44090342 806.98828125 3558.52734375 C802.31300526 3563.88794126 797.26672603 3568.88292212 792.23022461 3573.90014648 C790.56573723 3575.5592732 788.90666553 3577.22368051 787.24804688 3578.88867188 C781.67167735 3584.46884463 776.03326927 3589.91042462 770 3595 C768.97834307 3595.88837664 767.95746516 3596.77765026 766.9375 3597.66796875 C758.57380689 3604.8416151 749.90688032 3611.51562406 741 3618 C740.31921387 3618.4964502 739.63842773 3618.99290039 738.93701172 3619.50439453 C672.17661085 3667.96130568 595.28317103 3695.29973364 243 3739 C241.92495209 3739.0419046 241.92495209 3739.0419046 240.82818604 3739.08465576 C194.13150139 3740.89408407 147.36078234 3741.15785671 100.63484599 3741.11607273 C94.26857897 3741.11157828 87.9023123 3741.11317545 81.53604412 3741.11389065 C70.65738355 3741.11435505 59.77872917 3741.11137052 48.90007019 3741.10557556 C33.29450371 3741.09727771 17.68894382 3741.09546459 2.08337402 3741.09460449 C-35.34025182 3741.08939144 -72.76387603 3741.07543023 -110.1875 3741.0625 C-235.8246875 3741.0315625 -235.8246875 3741.0315625 -364 3741 C-364 3493.5 -364 3246 -364 2991 C-344.51573085 2992.21776682 -325.03299395 2993.43898681 -305.55517578 2994.75268555 C-284.05198096 2996.20019418 -262.61880623 2997.21172813 -241.0625 2997.1875 C-240.05741394 2997.18689575 -239.05232788 2997.1862915 -238.01678467 2997.18566895 C-223.60062496 2997.16219685 -209.29837943 2997.02784936 -195 2995 C-194.03626465 2994.86577637 -193.0725293 2994.73155273 -192.07958984 2994.59326172 C-140.3489207 2987.15847034 -88.85450751 2966.5646438 -55 2925 C-54.1108041 2923.94650737 -53.2214684 2922.89313272 -52.33203125 2921.83984375 C-25.33710926 2889.44771715 -13.01861897 2852.45673329 -7.81738281 2811.12939453 C-7.37992447 2807.66400982 -6.92541771 2804.20118072 -6.46875 2800.73828125 C-1.31330048 2760.97845546 -0.84656936 2721.25825617 -0.86079345 2681.23829731 C-0.86173043 2675.44277612 -0.85683196 2669.64725909 -0.85272202 2663.85173967 C-0.84587399 2653.01236131 -0.84345677 2642.17298739 -0.8430953 2631.33360703 C-0.8426987 2621.04015143 -0.83989677 2610.74669918 -0.8350333 2600.45324472 C-0.83454073 2599.40651733 -0.83454073 2599.40651733 -0.8340382 2598.33864393 C-0.83235148 2594.77498636 -0.83063008 2591.2113288 -0.82889687 2587.64767125 C-0.8163459 2561.68925452 -0.80864431 2535.73083811 -0.80341911 2509.77241898 C-0.79810967 2483.47572661 -0.7906228 2457.17903617 -0.78049088 2430.8823452 C-0.78017188 2430.05190515 -0.77985288 2429.22146511 -0.77952421 2428.36586021 C-0.77659988 2420.75506372 -0.77365144 2413.14426723 -0.77067431 2405.53347075 C-0.7632113 2386.45199973 -0.75607512 2367.3705286 -0.74915612 2348.28905737 C-0.74883889 2347.41483976 -0.74852167 2346.54062215 -0.74819483 2345.63991309 C-0.73259894 2302.57998762 -0.72071525 2259.5200612 -0.70907402 2216.46013451 C-0.70497517 2201.30833235 -0.70085864 2186.15653021 -0.69667697 2171.00472808 C-0.69641702 2170.06279589 -0.69615708 2169.12086369 -0.69588925 2168.1503881 C-0.68381766 2124.48686495 -0.6692023 2080.82334276 -0.65393867 2037.15982062 C-0.65294009 2034.30287756 -0.6519427 2031.44593449 -0.65094561 2028.58899143 C-0.64493193 2011.36119519 -0.63889179 1994.13339897 -0.63282111 1976.90560275 C-0.61773175 1934.08067828 -0.60295961 1891.2557537 -0.58840275 1848.43082905 C-0.58807123 1847.45598528 -0.5877397 1846.48114152 -0.58739814 1845.47675704 C-0.56593557 1782.35840484 -0.54577872 1719.2400523 -0.52671719 1656.12169933 C-0.52641293 1655.11426819 -0.52610868 1654.10683705 -0.52579521 1653.06887769 C-0.51653668 1622.40310658 -0.50737492 1591.73733544 -0.49823208 1561.0715643 C-0.48811404 1527.13631222 -0.47797949 1493.20106015 -0.46777344 1459.26580811 C-0.46731316 1457.73510136 -0.46731316 1457.73510136 -0.46684358 1456.17347124 C-0.43768392 1359.21785992 -0.4058594 1262.26224954 -0.37334755 1165.3066393 C-0.37197034 1161.1989877 -0.3705939 1157.0913361 -0.36921749 1152.98368451 C-0.35655122 1115.18365956 -0.3438537 1077.38363463 -0.33111694 1039.58360971 C-0.33077826 1038.5784566 -0.33043957 1037.57330348 -0.33009062 1036.53769119 C-0.32906517 1033.49435761 -0.3280397 1030.45102404 -0.32701423 1027.40769047 C-0.29931226 945.19457536 -0.27188282 862.98146016 -0.24463 780.76834491 C-0.24366841 777.86773655 -0.24270661 774.96712819 -0.24174474 772.06651983 C-0.21049408 677.82403759 -0.17972574 583.58155522 -0.12762691 417.17916156 C-0.12682834 414.61334445 -0.1260295 412.04752734 -0.12523057 409.48171024 C-0.12496906 408.64182787 -0.12470756 407.80194551 -0.12443813 406.93661217 C-0.12396218 405.40801748 -0.1234862 403.8794228 -0.12301016 402.35082811 C-0.08125436 268.23388564 -0.04079896 134.11694276 0 0 Z " fill="#FFFFFF" transform="translate(2398,2130)"/>
</svg>
