<svg xmlns="http://www.w3.org/2000/svg" viewBox="0 0 1200 800" fill="none">
  <rect width="1200" height="800" rx="48" fill="#050816"/>
  <defs>
    <linearGradient id="g2" x1="120" y1="80" x2="1080" y2="720" gradientUnits="userSpaceOnUse">
      <stop stop-color="#818CF8" stop-opacity="0.95"/>
      <stop offset="0.55" stop-color="#22D3EE" stop-opacity="0.65"/>
      <stop offset="1" stop-color="#0F172A" stop-opacity="0.95"/>
    </linearGradient>
  </defs>
  <rect x="72" y="72" width="1056" height="656" rx="36" fill="url(#g2)" opacity="0.95"/>
  <path d="M292 382c0-70 56-126 126-126 42 0 79 20 102 50 13-7 28-11 44-11 50 0 90 40 90 90 0 4 0 8-1 12 40 7 69 43 69 84 0 48-39 87-87 87H350c-64 0-116-52-116-116 0-37 17-71 44-92" stroke="#E2E8F0" stroke-opacity="0.55" stroke-width="22" stroke-linecap="round" stroke-linejoin="round"/>
  <circle cx="600" cy="386" r="104" fill="#020617" opacity="0.5"/>

</svg>